# xmcd
#
# Track frame offsets:
#	150
#	12714
#	24686
#	35894
#	47970
#	59469
#	72064
#	84823
#	96886
#	107319
#	118042
#	127406
#	139729
#	151787
#	161153
#	170589
#	181446
#	194575
#	206428
#	217255
#	228367
#	240960
#	251958
#	266326
#	278338
#	289707
#	302771
#
# Disc length: 4143 seconds
#
# Revision: 1
# Processed by: cddbd v1.5.2PL0 Copyright (c) Steve Scherf et al.
# Submitted via: FairStars CD Ripper 1.90
#
DISCID=8e102d1b
DTITLE=Various Artist - Steamline Boppin'
DYEAR=2003
DGENRE=Country
TTITLE0=Billy Hix - White ligthning
TTITLE1=Bill Swain - She hit the ceilin' (when I hit the door)
TTITLE2=Buckeye boys - Buckeye boogie
TTITLE3=Gabe Tucker - Jive around old Joe Clark
TTITLE4=Smilin' Eddie Varnado - Oh, what a line
TTITLE5=Kelly West - Grandpa boogie
TTITLE6=Jimmy Snow - Rocky mountain boogie
TTITLE7=Tex Ferguson - Kentucky Saturday night
TTITLE8=Eddie Miller - I like what you've got
TTITLE9=Frank Simon - I'm a lover not a fighter
TTITLE10=Martha Lou Gaches - Peeping tom
TTITLE11=Ramblin' Tommy Scott - Mountain music
TTITLE12=Preston Ward - Tennessee Saturday night
TTITLE13=Buchanan brothers - Hootin'-nanny papa
TTITLE14=Buchanan brothers - Don't dog me around
TTITLE15=Buchanan brothers - High tempered mama
TTITLE16=Smokey Mountain Ramblers - Record spinning boogie
TTITLE17=Fairley Holden - Keep them cold icey fingers offa me
TTITLE18=Bonnie and Paul Tutmarc - Midget auto blues
TTITLE19=Booby Cook and Buddy Nelson - Bad daddy blues
TTITLE20=Pat Cook - The jely song
TTITLE21=Gene Christian - Long time no see
TTITLE22=Frank Hunter - Tennessee boy
TTITLE23=Texas Top Hands - Texas guitar boogie
TTITLE24=Bill Gaines and Jimmy Lee Durden - Let's trade hearts my darling
TTITLE25=Al and Art - Jamm up boogie
TTITLE26=Dale Berry - There's a map of Texas on my heart
EXTD=
EXTT0=
EXTT1=
EXTT2=
EXTT3=
EXTT4=
EXTT5=
EXTT6=
EXTT7=
EXTT8=
EXTT9=
EXTT10=
EXTT11=
EXTT12=
EXTT13=
EXTT14=
EXTT15=
EXTT16=
EXTT17=
EXTT18=
EXTT19=
EXTT20=
EXTT21=
EXTT22=
EXTT23=
EXTT24=
EXTT25=
EXTT26=
PLAYORDER=
